HIERARCHY
ROOT Hips
{
	OFFSET 0.000000 0.000000 0.000000
	CHANNELS 6 Xposition Yposition Zposition Xrotation Yrotation Zrotation
	JOINT Chest
	{
		OFFSET 0.000000 0.009282 11.569106
		CHANNELS 3 Xrotation Yrotation Zrotation
		JOINT Chest2
		{
			OFFSET 0.000000 -0.016863 9.269641
			CHANNELS 3 Xrotation Yrotation Zrotation
			JOINT Chest3
			{
				OFFSET 0.000000 0.000000 8.374491
				CHANNELS 3 Xrotation Yrotation Zrotation
				JOINT Chest4
				{
					OFFSET 0.000000 0.000000 8.374493
					CHANNELS 3 Xrotation Yrotation Zrotation
					JOINT Neck
					{
						OFFSET 0.000000 -0.000001 12.152554
						CHANNELS 3 Xrotation Yrotation Zrotation
						JOINT Head
						{
							OFFSET 0.000000 -0.040100 7.802319
							CHANNELS 3 Xrotation Yrotation Zrotation
							End Site
							{
								OFFSET 0.000000 -0.020946 14.853096
							}
						}
					}
					JOINT RightCollar
					{
						OFFSET -2.894404 0.000000 6.791374
						CHANNELS 3 Xrotation Yrotation Zrotation
						JOINT RightShoulder
						{
							OFFSET -13.574684 0.000000 0.000000
							CHANNELS 3 Xrotation Yrotation Zrotation
							JOINT RightElbow
							{
								OFFSET -23.923903 0.000000 0.000000
								CHANNELS 3 Xrotation Yrotation Zrotation
								JOINT RightWrist
								{
									OFFSET -19.846718 -0.012765 0.000000
									CHANNELS 3 Xrotation Yrotation Zrotation
									End Site
									{
										OFFSET -14.973145 0.000000 0.000000
									}
								}
							}
						}
					}
					JOINT LeftCollar
					{
						OFFSET 2.894404 0.000000 6.791374
						CHANNELS 3 Xrotation Yrotation Zrotation
						JOINT LeftShoulder
						{
							OFFSET 13.574684 0.000000 0.000000
							CHANNELS 3 Xrotation Yrotation Zrotation
							JOINT LeftElbow
							{
								OFFSET 23.923903 0.000000 0.000000
								CHANNELS 3 Xrotation Yrotation Zrotation
								JOINT LeftWrist
								{
									OFFSET 19.846718 -0.012765 0.000000
									CHANNELS 3 Xrotation Yrotation Zrotation
									End Site
									{
										OFFSET 14.973145 0.000000 0.000000
									}
								}
							}
						}
					}
				}
			}
		}
	}
	JOINT RightHip
	{
		OFFSET -9.469263 -0.004642 0.045487
		CHANNELS 3 Xrotation Yrotation Zrotation
		JOINT RightKnee
		{
			OFFSET 0.000000 -0.002666 -40.478676
			CHANNELS 3 Xrotation Yrotation Zrotation
			JOINT RightAnkle
			{
				OFFSET 0.000000 -0.049110 -35.224068
				CHANNELS 3 Xrotation Yrotation Zrotation
				JOINT RightToe
				{
					OFFSET 0.000000 -12.539530 -6.151390
					CHANNELS 3 Xrotation Yrotation Zrotation
					End Site
					{
						OFFSET 0.000000 -5.044995 -1.291870
					}
				}
			}
		}
	}
	JOINT LeftHip
	{
		OFFSET 9.469263 -0.004642 0.045487
		CHANNELS 3 Xrotation Yrotation Zrotation
		JOINT LeftKnee
		{
			OFFSET 0.000000 -0.002666 -40.478676
			CHANNELS 3 Xrotation Yrotation Zrotation
			JOINT LeftAnkle
			{
				OFFSET 0.000000 -0.049110 -35.224068
				CHANNELS 3 Xrotation Yrotation Zrotation
				JOINT LeftToe
				{
					OFFSET 0.000000 -12.539530 -6.151390
					CHANNELS 3 Xrotation Yrotation Zrotation
					End Site
					{
						OFFSET 0.000000 -5.044995 -1.291870
					}
				}
			}
		}
	}
}
MOTION
Frames: 7
Frame Time: 0.016667
-11.400900 -5.652626 82.933052 3.128409 6.590291 -115.845978 3.842909 -0.632382 4.576352 1.698557 -0.301852 2.026124 1.698558 -0.301852 2.026127 1.272931 -0.232025 1.518768 24.910434 -2.578149 -3.433784 10.009986 -3.905637 -6.912650 0.544113 -5.978045 -9.577541 -36.653698 -80.352183 -9.586785 19.095839 8.994538 12.113644 -40.279582 51.157950 73.322996 5.757075 12.529007 -18.406421 12.577878 63.239294 -37.608169 19.738043 -3.781039 4.876505 2.628470 -72.829160 -61.783706 10.703403 0.251088 -0.820338 0.977431 -0.095285 -0.295475 -4.521354 -0.832892 3.749346 0.075362 0.028852 -0.005749 11.331794 0.390846 2.238323 0.481941 -0.781976 -2.045612 -4.486327 0.666658 3.334483 0.030880 0.092991 0.000256 
-11.391995 -5.614719 82.930130 3.100201 6.600786 -115.788222 3.823652 -0.643386 4.640147 1.690146 -0.307467 2.054920 1.690146 -0.307467 2.054919 1.266589 -0.236289 1.540343 24.834097 -2.498161 -3.166395 9.871869 -3.819395 -6.405774 0.408396 -6.025787 -9.437750 -33.111794 -80.729544 -6.632587 18.696173 8.196995 11.417356 -39.154001 51.869276 71.354788 5.668152 12.506123 -18.395175 11.852531 63.168335 -36.934094 18.684923 -4.108015 6.158991 3.964905 -72.791949 -60.036454 10.708902 0.253470 -0.854147 0.990619 -0.117555 -0.290287 -4.545927 -0.799376 3.740313 0.073431 0.029148 -0.005294 11.308224 0.391442 2.207026 0.523455 -0.795243 -2.070554 -4.514324 0.672138 3.366790 0.031956 0.093313 -0.000662 
-11.383520 -5.580132 82.928696 3.070495 6.611495 -115.718731 3.795221 -0.643815 4.697408 1.677785 -0.308262 2.080185 1.677785 -0.308262 2.080183 1.257305 -0.236913 1.559303 24.761563 -2.412513 -2.884881 9.741248 -3.726926 -5.871330 0.316526 -6.093072 -9.313235 -29.001711 -81.156403 -3.043936 18.209986 7.418281 10.763427 -38.029605 52.630371 69.221474 5.669692 12.447695 -18.370535 10.787043 63.087609 -36.049704 17.615275 -4.394707 7.243322 4.723440 -72.669511 -58.675205 10.711242 0.255873 -0.881527 1.009167 -0.141438 -0.303511 -4.572030 -0.764342 3.699842 0.070468 0.028621 -0.004372 11.286932 0.386899 2.183391 0.558353 -0.802832 -2.099249 -4.537299 0.679082 3.355054 0.031697 0.092586 -0.002903 
-11.374414 -5.543735 82.927879 3.036691 6.616495 -115.642561 3.751592 -0.631540 4.757755 1.658417 -0.302247 2.106647 1.658417 -0.302247 2.106641 1.242785 -0.232407 1.579174 24.688424 -2.328946 -2.594736 9.609590 -3.640921 -5.321443 0.191350 -6.153291 -9.270156 -24.398255 -81.534379 1.024708 17.740996 6.534337 10.185459 -36.680045 53.275947 66.802645 5.700696 12.389210 -18.344377 9.620175 62.954789 -35.128353 16.684740 -4.696954 8.232395 6.161037 -72.577126 -56.718591 10.708390 0.257541 -0.896941 1.027821 -0.162533 -0.330493 -4.599244 -0.728370 3.672029 0.067254 0.025604 -0.002040 11.260486 0.380700 2.174937 0.587594 -0.809324 -2.133402 -4.557057 0.690751 3.304404 0.031785 0.089758 -0.004252 
-11.366284 -5.505539 82.927170 2.999600 6.616251 -115.559247 3.698581 -0.621958 4.827494 1.634442 -0.297424 2.136796 1.634442 -0.297424 2.136792 1.224807 -0.228787 1.601804 24.608168 -2.246705 -2.303918 9.464888 -3.557898 -4.770698 0.055437 -6.198799 -9.215792 -19.569564 -81.824164 5.273721 17.184730 5.603573 9.727430 -35.150896 53.878612 64.278596 5.700055 12.368566 -18.321651 8.461570 62.744194 -34.231805 15.964800 -4.998347 9.170834 8.554492 -72.415544 -53.779427 10.701732 0.254077 -0.903852 1.044361 -0.181770 -0.367536 -4.626459 -0.686327 3.631435 0.064100 0.020476 -0.000667 11.229876 0.369315 2.170502 0.613405 -0.805290 -2.174909 -4.577556 0.697958 3.274884 0.033930 0.086490 -0.004796 
-11.357157 -5.466744 82.926552 2.959003 6.618091 -115.460878 3.661258 -0.609475 4.903112 1.617904 -0.291640 2.169663 1.617903 -0.291640 2.169662 1.212407 -0.224479 1.626486 24.509418 -2.167573 -2.007717 9.285967 -3.482004 -4.211218 -0.091608 -6.243411 -9.116242 -14.397045 -82.048556 9.881242 16.522859 4.698599 9.349746 -33.700874 54.442512 61.776452 5.605081 12.339815 -18.288530 7.512637 62.488540 -33.533084 15.110547 -5.303463 10.033635 11.047551 -72.085161 -50.407718 10.694025 0.254807 -0.921354 1.068074 -0.205253 -0.403793 -4.660164 -0.639802 3.591729 0.062076 0.013921 0.000676 11.201802 0.357798 2.154225 0.630303 -0.800925 -2.232648 -4.592856 0.705941 3.260918 0.036872 0.083481 -0.005802 
-11.348429 -5.429749 82.927139 2.918600 6.625333 -115.350311 3.641574 -0.606584 4.970542 1.609382 -0.290570 2.198947 1.609383 -0.290570 2.198943 1.206007 -0.223723 1.648454 24.402632 -2.077969 -1.703977 9.092816 -3.389410 -3.635347 -0.225919 -6.261548 -8.993484 -8.131691 -82.191669 15.611586 15.707746 3.825191 9.074851 -32.305651 54.940225 59.216340 5.509709 12.298550 -18.285629 6.715423 62.248261 -33.046849 13.775564 -5.633137 10.712587 13.242936 -71.581093 -46.781987 10.693482 0.256733 -0.942259 1.088756 -0.230244 -0.447887 -4.690454 -0.594392 3.557523 0.058255 0.009583 0.002050 11.173703 0.350089 2.117258 0.654855 -0.803697 -2.276905 -4.610215 0.716229 3.224242 0.038609 0.082088 -0.007626 
